HIERARCHY
ROOT newVegas:Hips
{
	OFFSET 0.000000 96.479958 0.000000
	CHANNELS 6 Xposition Yposition Zposition Xrotation Yrotation Zrotation
	JOINT newVegas:Pelvis
	{
		OFFSET 0.000000 0.000000 0.000000
		CHANNELS 3 Xrotation Yrotation Zrotation
		JOINT newVegas:LeftUpLeg
		{
			OFFSET 18.735201 -5.666702 -4.541200
			CHANNELS 3 Xrotation Yrotation Zrotation
			JOINT newVegas:LeftLeg
			{
				OFFSET -0.021200 -31.938179 0.493100
				CHANNELS 3 Xrotation Yrotation Zrotation
				JOINT newVegas:LeftFoot
				{
					OFFSET 0.021200 -31.938179 -4.336299
					CHANNELS 3 Xrotation Yrotation Zrotation
					JOINT newVegas:LeftToeBase
					{
						OFFSET 0.943001 -26.722000 15.023500
						CHANNELS 3 Xrotation Yrotation Zrotation
						End Site
						{
							OFFSET 0.000000 30.670183 0.000000
						}
					}
				}
				JOINT newVegas:Left_PantLeg
				{
					OFFSET 0.663870 -9.044666 -1.108900
					CHANNELS 3 Xrotation Yrotation Zrotation
					End Site
					{
						OFFSET 1.415995 20.635357 0.000000
					}
				}
			}
		}
		JOINT newVegas:RightUpLeg
		{
			OFFSET -18.735201 -5.666702 -4.541200
			CHANNELS 3 Xrotation Yrotation Zrotation
			JOINT newVegas:RightLeg
			{
				OFFSET 0.018946 -31.938133 0.493100
				CHANNELS 3 Xrotation Yrotation Zrotation
				JOINT newVegas:RightFoot
				{
					OFFSET -0.018946 -31.938126 -4.336299
					CHANNELS 3 Xrotation Yrotation Zrotation
					JOINT newVegas:RightToeBase
					{
						OFFSET -0.943001 -26.722004 15.023500
						CHANNELS 3 Xrotation Yrotation Zrotation
						End Site
						{
							OFFSET 0.000000 30.670187 0.000000
						}
					}
				}
				JOINT newVegas:Right_PantLeg
				{
					OFFSET -0.661674 -9.044716 -1.108900
					CHANNELS 3 Xrotation Yrotation Zrotation
					End Site
					{
						OFFSET -1.415958 20.635269 0.000000
					}
				}
			}
		}
	}
	JOINT newVegas:Spine
	{
		OFFSET 0.000000 10.199997 -0.299500
		CHANNELS 3 Xrotation Yrotation Zrotation
		JOINT newVegas:Spine1
		{
			OFFSET 0.000000 11.900002 -1.516600
			CHANNELS 3 Xrotation Yrotation Zrotation
			JOINT newVegas:Spine2
			{
				OFFSET 0.000000 13.600006 -2.842500
				CHANNELS 3 Xrotation Yrotation Zrotation
				JOINT newVegas:Neck
				{
					OFFSET 0.000000 9.624100 -2.890100
					CHANNELS 3 Xrotation Yrotation Zrotation
					JOINT newVegas:Head
					{
						OFFSET 0.000000 14.068802 -1.351900
						CHANNELS 3 Xrotation Yrotation Zrotation
						JOINT newVegas:Hair_Back
						{
							OFFSET 0.000000 3.231903 -17.524799
							CHANNELS 3 Xrotation Yrotation Zrotation
							End Site
							{
								OFFSET 0.000000 19.849884 0.000000
							}
						}
						JOINT newVegas:Hair_Front
						{
							OFFSET 0.000000 31.260406 4.573800
							CHANNELS 3 Xrotation Yrotation Zrotation
							JOINT newVegas:Hair_Front1
							{
								OFFSET 0.000000 2.284103 11.993300
								CHANNELS 3 Xrotation Yrotation Zrotation
								JOINT newVegas:Hair_Front2
								{
									OFFSET 0.000000 2.284103 11.993300
									CHANNELS 3 Xrotation Yrotation Zrotation
									End Site
									{
										OFFSET 0.000000 12.208862 0.000000
									}
								}
							}
						}
						JOINT newVegas:Jowel
						{
							OFFSET 0.000000 -7.458206 6.864100
							CHANNELS 3 Xrotation Yrotation Zrotation
							End Site
							{
								OFFSET 0.000000 19.849884 0.000000
							}
						}
					}
				}
				JOINT newVegas:LeftShoulder
				{
					OFFSET 15.263000 10.923401 -0.547700
					CHANNELS 3 Xrotation Yrotation Zrotation
					JOINT newVegas:LeftArm
					{
						OFFSET 25.438599 -2.830597 -13.032500
						CHANNELS 3 Xrotation Yrotation Zrotation
						JOINT newVegas:LeftForeArm
						{
							OFFSET 29.960503 0.000000 0.000000
							CHANNELS 3 Xrotation Yrotation Zrotation
							JOINT newVegas:LeftHand
							{
								OFFSET 27.849251 0.000000 0.000000
								CHANNELS 3 Xrotation Yrotation Zrotation
								JOINT newVegas:LeftHandThumb1
								{
									OFFSET 4.487587 -3.305161 6.305391
									CHANNELS 3 Xrotation Yrotation Zrotation
									JOINT newVegas:LeftHandThumb2
									{
										OFFSET 5.480453 -3.164139 3.164143
										CHANNELS 3 Xrotation Yrotation Zrotation
										JOINT newVegas:LeftHandThumb3
										{
											OFFSET 5.159721 -2.978973 2.978967
											CHANNELS 3 Xrotation Yrotation Zrotation
											End Site
											{
												OFFSET 2.494507 5.926697 1.738678
											}
										}
									}
								}
								JOINT newVegas:LeftHandIndex1
								{
									OFFSET 18.578728 -0.527832 5.208049
									CHANNELS 3 Xrotation Yrotation Zrotation
									JOINT newVegas:LeftHandIndex2
									{
										OFFSET 3.192009 0.000000 0.000000
										CHANNELS 3 Xrotation Yrotation Zrotation
										JOINT newVegas:LeftHandIndex3
										{
											OFFSET 3.835129 0.000000 0.000000
											CHANNELS 3 Xrotation Yrotation Zrotation
											End Site
											{
												OFFSET -0.034599 3.816971 0.371180
											}
										}
									}
								}
								JOINT newVegas:LeftHandMiddle1
								{
									OFFSET 18.476105 0.000000 0.000000
									CHANNELS 3 Xrotation Yrotation Zrotation
									JOINT newVegas:LeftHandMiddle2
									{
										OFFSET 3.324875 0.000000 0.000000
										CHANNELS 3 Xrotation Yrotation Zrotation
										JOINT newVegas:LeftHandMiddle3
										{
											OFFSET 4.596550 0.000000 0.000000
											CHANNELS 3 Xrotation Yrotation Zrotation
											End Site
											{
												OFFSET 0.057701 4.578827 0.399218
											}
										}
									}
								}
								JOINT newVegas:LeftHandRing1
								{
									OFFSET 17.732719 0.121887 -4.201567
									CHANNELS 3 Xrotation Yrotation Zrotation
									JOINT newVegas:LeftHandRing2
									{
										OFFSET 2.733170 0.000000 0.000000
										CHANNELS 3 Xrotation Yrotation Zrotation
										JOINT newVegas:LeftHandRing3
										{
											OFFSET 3.178268 0.000000 0.000000
											CHANNELS 3 Xrotation Yrotation Zrotation
											End Site
											{
												OFFSET 0.119102 3.170624 0.185394
											}
										}
									}
								}
								JOINT newVegas:LeftHandPinky1
								{
									OFFSET 15.989624 -0.606689 -7.535461
									CHANNELS 3 Xrotation Yrotation Zrotation
									JOINT newVegas:LeftHandPinky2
									{
										OFFSET 2.538986 0.000000 0.000000
										CHANNELS 3 Xrotation Yrotation Zrotation
										JOINT newVegas:LeftHandPinky3
										{
											OFFSET 2.593102 0.000000 0.000000
											CHANNELS 3 Xrotation Yrotation Zrotation
											End Site
											{
												OFFSET -0.150902 2.584198 0.152708
											}
										}
									}
								}
							}
							JOINT newVegas:Left_Sleeve
							{
								OFFSET 0.267448 -0.649796 0.577675
								CHANNELS 3 Xrotation Yrotation Zrotation
								End Site
								{
									OFFSET 0.000000 15.991241 0.000000
								}
							}
							JOINT newVegas:Left_CapeC
							{
								OFFSET 15.715958 -8.608795 -6.935905
								CHANNELS 3 Xrotation Yrotation Zrotation
								JOINT newVegas:Left_CapeC1
								{
									OFFSET 0.000000 -8.688499 0.000000
									CHANNELS 3 Xrotation Yrotation Zrotation
									End Site
									{
										OFFSET 0.000000 8.688499 0.000000
									}
								}
							}
						}
						JOINT newVegas:Left_CapeB
						{
							OFFSET 26.118385 -8.608795 -7.079235
							CHANNELS 3 Xrotation Yrotation Zrotation
							JOINT newVegas:Left_CapeB1
							{
								OFFSET 0.000000 -8.688499 0.000000
								CHANNELS 3 Xrotation Yrotation Zrotation
								End Site
								{
									OFFSET 0.000000 8.688499 0.000000
								}
							}
						}
						JOINT newVegas:Left_CapeA
						{
							OFFSET 5.115639 -8.608795 -10.395809
							CHANNELS 3 Xrotation Yrotation Zrotation
							JOINT newVegas:Left_CapeA1
							{
								OFFSET 0.000000 -8.688499 0.000000
								CHANNELS 3 Xrotation Yrotation Zrotation
								End Site
								{
									OFFSET 0.000000 8.688499 0.000000
								}
							}
						}
					}
				}
				JOINT newVegas:RightShoulder
				{
					OFFSET -15.263000 10.923401 -0.547700
					CHANNELS 3 Xrotation Yrotation Zrotation
					JOINT newVegas:RightArm
					{
						OFFSET -25.438599 -2.830597 -13.032500
						CHANNELS 3 Xrotation Yrotation Zrotation
						JOINT newVegas:RightForeArm
						{
							OFFSET -29.960503 0.000000 0.000000
							CHANNELS 3 Xrotation Yrotation Zrotation
							JOINT newVegas:RightHand
							{
								OFFSET -27.849251 0.000000 0.000000
								CHANNELS 3 Xrotation Yrotation Zrotation
								JOINT newVegas:RightHandThumb1
								{
									OFFSET -4.487587 -3.305161 6.305391
									CHANNELS 3 Xrotation Yrotation Zrotation
									JOINT newVegas:RightHandThumb2
									{
										OFFSET -5.480453 -3.164139 3.164143
										CHANNELS 3 Xrotation Yrotation Zrotation
										JOINT newVegas:RightHandThumb3
										{
											OFFSET -5.159721 -2.978973 2.978967
											CHANNELS 3 Xrotation Yrotation Zrotation
											End Site
											{
												OFFSET -2.494507 5.926697 1.738678
											}
										}
									}
								}
								JOINT newVegas:RightHandIndex1
								{
									OFFSET -18.578728 -0.527832 5.208049
									CHANNELS 3 Xrotation Yrotation Zrotation
									JOINT newVegas:RightHandIndex2
									{
										OFFSET -3.192009 0.000000 0.000000
										CHANNELS 3 Xrotation Yrotation Zrotation
										JOINT newVegas:RightHandIndex3
										{
											OFFSET -3.835129 0.000000 0.000000
											CHANNELS 3 Xrotation Yrotation Zrotation
											End Site
											{
												OFFSET 0.034599 3.816971 0.371180
											}
										}
									}
								}
								JOINT newVegas:RightHandMiddle1
								{
									OFFSET -18.476105 0.000000 0.000000
									CHANNELS 3 Xrotation Yrotation Zrotation
									JOINT newVegas:RightHandMiddle2
									{
										OFFSET -3.324875 0.000000 0.000000
										CHANNELS 3 Xrotation Yrotation Zrotation
										JOINT newVegas:RightHandMiddle3
										{
											OFFSET -4.596550 0.000000 0.000000
											CHANNELS 3 Xrotation Yrotation Zrotation
											End Site
											{
												OFFSET -0.057701 4.578827 0.399218
											}
										}
									}
								}
								JOINT newVegas:RightHandRing1
								{
									OFFSET -17.732719 0.121887 -4.201567
									CHANNELS 3 Xrotation Yrotation Zrotation
									JOINT newVegas:RightHandRing2
									{
										OFFSET -2.733170 0.000000 0.000000
										CHANNELS 3 Xrotation Yrotation Zrotation
										JOINT newVegas:RightHandRing3
										{
											OFFSET -3.178268 0.000000 0.000000
											CHANNELS 3 Xrotation Yrotation Zrotation
											End Site
											{
												OFFSET -0.119102 3.170624 0.185394
											}
										}
									}
								}
								JOINT newVegas:RightHandPinky1
								{
									OFFSET -15.989624 -0.606689 -7.535461
									CHANNELS 3 Xrotation Yrotation Zrotation
									JOINT newVegas:RightHandPinky2
									{
										OFFSET -2.538986 0.000000 0.000000
										CHANNELS 3 Xrotation Yrotation Zrotation
										JOINT newVegas:RightHandPinky3
										{
											OFFSET -2.593102 0.000000 0.000000
											CHANNELS 3 Xrotation Yrotation Zrotation
											End Site
											{
												OFFSET 0.150902 2.584198 0.152708
											}
										}
									}
								}
							}
							JOINT newVegas:Right_CapeC
							{
								OFFSET -15.715958 -8.608795 -6.935905
								CHANNELS 3 Xrotation Yrotation Zrotation
								JOINT newVegas:Right_CapeC1
								{
									OFFSET 0.000000 -8.688499 0.000000
									CHANNELS 3 Xrotation Yrotation Zrotation
									End Site
									{
										OFFSET 0.000000 8.688499 0.000000
									}
								}
							}
							JOINT newVegas:Right_Sleeve
							{
								OFFSET -0.267448 -0.649994 0.577675
								CHANNELS 3 Xrotation Yrotation Zrotation
								End Site
								{
									OFFSET 0.000000 15.991302 0.000000
								}
							}
						}
						JOINT newVegas:Right_CapeA
						{
							OFFSET -5.115540 -8.608795 -10.395824
							CHANNELS 3 Xrotation Yrotation Zrotation
							JOINT newVegas:Right_CapeA1
							{
								OFFSET 0.000000 -8.688499 0.000000
								CHANNELS 3 Xrotation Yrotation Zrotation
								End Site
								{
									OFFSET 0.000000 8.688499 0.000000
								}
							}
						}
						JOINT newVegas:Right_CapeB
						{
							OFFSET -26.118187 -8.608795 -7.079266
							CHANNELS 3 Xrotation Yrotation Zrotation
							JOINT newVegas:Right_CapeB1
							{
								OFFSET 0.000000 -8.688499 0.000000
								CHANNELS 3 Xrotation Yrotation Zrotation
								End Site
								{
									OFFSET 0.000000 8.688499 0.000000
								}
							}
						}
					}
				}
				JOINT newVegas:Left_Collar
				{
					OFFSET 18.625099 8.655502 8.828100
					CHANNELS 3 Xrotation Yrotation Zrotation
					JOINT newVegas:Left_Collar1
					{
						OFFSET 14.783401 10.540405 -1.259500
						CHANNELS 3 Xrotation Yrotation Zrotation
						End Site
						{
							OFFSET 0.000000 18.199875 0.000000
						}
					}
				}
				JOINT newVegas:Collar_Back
				{
					OFFSET 0.000000 15.630707 -20.132601
					CHANNELS 3 Xrotation Yrotation Zrotation
					End Site
					{
						OFFSET 0.000000 22.523010 0.000000
					}
				}
				JOINT newVegas:Left_Peck
				{
					OFFSET 17.239599 -5.132599 25.482599
					CHANNELS 3 Xrotation Yrotation Zrotation
					End Site
					{
						OFFSET 0.000000 22.523010 0.000000
					}
				}
				JOINT newVegas:Right_Peck
				{
					OFFSET -17.239599 -5.132202 25.482599
					CHANNELS 3 Xrotation Yrotation Zrotation
					End Site
					{
						OFFSET 0.000000 22.523010 0.000000
					}
				}
				JOINT newVegas:Right_Collar
				{
					OFFSET -18.625099 8.655792 8.828100
					CHANNELS 3 Xrotation Yrotation Zrotation
					JOINT newVegas:Right_Collar1
					{
						OFFSET -14.783401 10.539993 -1.259500
						CHANNELS 3 Xrotation Yrotation Zrotation
						End Site
						{
							OFFSET 0.000000 18.199631 0.000000
						}
					}
				}
			}
		}
		JOINT newVegas:Belly
		{
			OFFSET 0.000000 -6.540398 9.014299
			CHANNELS 3 Xrotation Yrotation Zrotation
			End Site
			{
				OFFSET 0.000000 11.566666 0.000000
			}
		}
	}
	JOINT newVegas:ElvisFacialAnim_Joint
	{
		OFFSET 1.000000 -95.330101 -8.825800
		CHANNELS 3 Xrotation Yrotation Zrotation
		End Site
		{
			OFFSET 0.000000 35.315800 0.000000
		}
	}
}
MOTION
Frames: 4
Frame Time: 0.033333
1.009299 53.548431 161.296829 32.381698 -38.712033 6.542418 -0.000000 0.000001 -0.000001 -44.243162 17.113971 20.532052 75.413983 -11.585700 -9.196289 49.159856 -9.599491 -22.162524 -0.000001 -0.000000 -0.000001 0.000001 0.000003 0.000001 -114.246266 -36.068412 11.248294 89.574099 -23.301091 -5.431415 -6.027119 -1.473592 -16.359304 -0.000000 0.000002 -0.000000 -0.000001 -0.000001 -0.000001 27.843182 5.614311 5.868609 7.552889 -3.998919 5.991129 7.539393 -3.654281 6.199155 -6.255719 4.305322 -2.699278 -6.255722 4.305336 -2.699274 -0.000003 0.000001 0.000001 -6.255657 4.305283 -2.699265 -6.255784 4.305426 -2.699278 -0.000001 -0.000001 0.000002 -0.000003 0.000001 -0.000000 6.077753 -13.687638 -5.254596 -73.163675 -1.915173 -25.728501 35.440711 -28.374100 27.493934 -10.771488 -3.874924 8.564990 40.109961 -15.297050 -0.359992 5.639611 28.097559 11.338823 -0.000004 0.000000 -0.000001 6.881616 2.840484 -61.140479 8.247826 7.639981 -89.898328 0.000000 -0.000003 -0.000001 -2.346185 4.689426 -62.655087 8.754224 9.897011 -87.051335 -0.000000 0.000001 0.000000 -9.042890 10.045751 -60.766130 8.524229 9.508754 -66.893787 -0.000001 -0.000003 0.000004 -17.947254 14.755113 -51.486092 8.868860 8.666882 -84.812419 0.000000 -0.000000 0.000002 -0.000000 0.000000 -0.000001 -0.000000 0.000000 -0.000001 -0.000000 0.000001 -0.000001 -0.000003 -0.000002 -0.000000 -0.000002 -0.000002 -0.000002 -0.000003 -0.000002 -0.000000 -0.000003 -0.000002 -0.000000 5.029695 17.950897 27.519252 -16.634712 -5.347888 19.396807 -36.443219 35.888556 24.336270 -1.019665 -12.171599 -7.270660 15.779552 -2.730524 -17.214141 -2.090810 -31.045976 7.368411 0.000001 -0.000004 -0.000001 2.371436 -3.655385 8.488995 -2.148589 -2.464805 18.674043 -0.000005 -0.000000 -0.000002 -1.976795 -5.701868 13.665010 0.262264 -5.094028 26.989320 -0.000002 -0.000003 0.000001 -3.263329 -8.556812 11.772550 4.032005 -4.048806 33.264814 -0.000001 0.000001 -0.000000 -6.475810 -11.337766 23.265619 10.714883 -2.543850 34.823907 0.000002 0.000002 0.000000 0.000002 0.000000 0.000002 0.000002 -0.000000 0.000000 0.000001 0.000001 -0.000001 -0.000000 0.000001 0.000001 -0.000000 0.000002 0.000001 -0.000000 0.000001 0.000001 -0.000000 0.000002 0.000001 0.000002 0.000002 -0.000004 0.000002 0.000002 -0.000004 0.000002 0.000002 -0.000004 0.000002 0.000002 -0.000004 0.000002 0.000002 -0.000004 0.000002 0.000002 -0.000004 0.000002 0.000002 -0.000004 0.000002 0.000001 -0.000001 -0.000000 0.000001 -0.000001 
0.745481 55.634628 166.485382 34.096096 -39.719859 8.907855 -0.000000 0.000000 0.000000 -50.679362 16.460300 25.068116 83.639218 -10.926194 -7.488234 42.892744 -7.337793 -26.569125 0.000001 0.000000 -0.000000 -0.000001 0.000000 0.000000 -111.370934 -31.781932 11.803728 94.164512 -21.548967 -5.140999 -12.034522 -1.512715 -10.966075 -0.000000 0.000000 -0.000000 0.000001 -0.000000 0.000001 27.886083 5.074611 4.878008 7.230843 -3.796617 5.361736 7.223697 -3.481397 5.558768 -6.222815 4.340781 -2.866476 -6.222806 4.340784 -2.866464 -0.000003 0.000002 -0.000002 -6.222836 4.340814 -2.866486 -6.222800 4.340826 -2.866484 -0.000000 0.000001 0.000000 -0.000003 0.000002 -0.000002 6.263123 -13.083696 -5.021556 -74.063204 -2.011185 -26.311093 35.080705 -27.098156 27.046420 -10.026608 -4.366366 9.480963 40.109968 -15.297050 -0.359992 5.639615 28.097556 11.338821 -0.000001 -0.000002 -0.000001 6.881617 2.840485 -61.140479 8.247826 7.639982 -89.898328 -0.000000 -0.000001 -0.000001 -2.346186 4.689426 -62.655087 8.754224 9.897011 -87.051342 0.000000 -0.000000 0.000001 -9.042891 10.045753 -60.766130 8.524232 9.508754 -66.893787 -0.000001 -0.000001 0.000000 -17.947256 14.755114 -51.486092 8.868861 8.666883 -84.812419 0.000002 -0.000002 -0.000001 0.000000 0.000000 0.000000 0.000000 0.000000 0.000000 0.000000 0.000000 0.000000 0.000001 -0.000004 -0.000001 0.000001 -0.000004 -0.000001 0.000001 -0.000004 -0.000001 -0.000000 -0.000004 -0.000001 5.029691 17.950895 27.519256 -17.347021 -3.019773 19.147831 -35.388521 33.030894 22.048563 -1.005512 -10.734905 -7.723307 14.288715 -2.444530 -15.336300 -1.911525 -30.418732 6.244045 0.000002 -0.000002 -0.000002 2.166515 -3.385926 7.939363 -2.034243 -2.266270 17.738256 -0.000002 0.000001 -0.000001 -1.813335 -5.680233 12.895159 0.340370 -5.027995 26.786033 -0.000004 0.000001 0.000000 -2.926291 -8.730722 11.226976 3.873972 -4.042771 32.819674 0.000002 0.000001 -0.000000 -5.779291 -11.722762 22.359729 10.188247 -2.640646 33.709234 0.000000 -0.000000 0.000002 0.000003 -0.000001 -0.000002 0.000002 -0.000001 0.000001 0.000002 -0.000000 -0.000000 -0.000001 0.000000 -0.000001 -0.000001 0.000001 -0.000001 -0.000001 0.000000 -0.000001 -0.000001 0.000001 -0.000002 -0.000003 -0.000001 0.000002 -0.000003 -0.000001 0.000002 -0.000003 -0.000001 0.000002 -0.000003 -0.000001 0.000002 -0.000003 -0.000001 0.000002 -0.000003 -0.000001 0.000002 -0.000003 -0.000001 0.000002 0.000002 -0.000000 0.000002 -0.000000 0.000000 0.000000 
0.275112 58.854309 172.139389 33.899199 -40.188143 10.906735 -0.000001 0.000003 -0.000001 -58.425964 13.946999 30.222163 97.522226 -8.893079 -4.868718 30.683412 -2.823212 -30.748296 0.000001 -0.000000 0.000001 -0.000000 0.000000 0.000000 -104.925188 -24.806433 12.783730 96.784552 -20.129681 -4.863598 -18.695073 -1.916391 -4.707080 -0.000000 -0.000003 0.000000 -0.000001 0.000004 -0.000001 28.897472 3.806141 3.896710 7.268269 -3.807065 4.715251 7.274396 -3.505178 4.915650 -6.034351 4.416047 -3.095329 -6.034367 4.416053 -3.095335 0.000001 -0.000001 0.000001 -6.034360 4.416020 -3.095324 -6.034356 4.416077 -3.095338 0.000003 -0.000000 0.000001 0.000001 -0.000001 0.000001 6.426657 -12.404235 -4.900854 -74.749290 -2.183157 -26.870062 34.549805 -26.365136 26.544813 -9.412733 -4.531650 10.565216 40.109968 -15.297047 -0.359989 5.639611 28.097558 11.338819 -0.000003 0.000000 -0.000006 6.881616 2.840483 -61.140486 8.247823 7.639981 -89.898328 -0.000001 -0.000002 0.000000 -2.346187 4.689425 -62.655094 8.754224 9.897012 -87.051335 0.000001 -0.000001 -0.000000 -9.042890 10.045752 -60.766130 8.524231 9.508753 -66.893794 -0.000000 0.000003 -0.000001 -17.947263 14.755116 -51.486096 8.868860 8.666887 -84.812419 0.000001 -0.000005 0.000001 0.000000 0.000000 0.000002 0.000000 0.000000 0.000002 0.000000 -0.000000 0.000002 -0.000000 -0.000001 0.000001 0.000001 -0.000002 -0.000001 -0.000000 -0.000001 0.000001 -0.000001 -0.000000 0.000001 5.029693 17.950895 27.519259 -18.406045 -0.035901 18.862189 -34.157807 29.144001 19.086533 -0.973571 -9.223123 -8.244635 11.880229 -2.149720 -12.197962 -1.568048 -29.422208 4.396529 0.000001 -0.000005 -0.000003 1.840721 -2.935001 7.039344 -1.833219 -1.948825 16.189611 0.000003 0.000003 0.000004 -1.543863 -5.656740 11.627063 0.470010 -4.920616 26.450341 0.000004 -0.000001 -0.000001 -2.379066 -9.033734 10.332959 3.614458 -4.030556 32.087812 -0.000002 0.000002 -0.000000 -4.660674 -12.413287 20.891331 9.321235 -2.758556 31.871322 -0.000002 -0.000000 0.000000 0.000003 0.000000 -0.000000 -0.000001 -0.000002 -0.000001 0.000002 0.000001 -0.000001 -0.000001 -0.000003 -0.000001 -0.000001 -0.000002 -0.000001 -0.000001 -0.000003 -0.000001 -0.000001 -0.000002 -0.000001 0.000000 -0.000001 0.000002 0.000000 -0.000001 0.000002 0.000000 -0.000001 0.000002 0.000000 -0.000001 0.000002 0.000000 -0.000001 0.000002 0.000000 -0.000001 0.000002 0.000000 -0.000001 0.000002 -0.000003 0.000001 0.000000 -0.000001 0.000003 -0.000001 
-0.633713 62.004936 178.239487 33.742087 -40.247634 13.140869 -0.000000 0.000000 -0.000001 -68.427772 9.014408 34.113393 108.818840 -5.043436 -2.717736 21.157764 0.192030 -31.256957 0.000000 -0.000000 -0.000000 0.000001 0.000000 -0.000000 -97.523743 -16.794638 13.256834 98.144723 -19.384780 -4.679308 -25.917042 -2.751991 1.849749 -0.000000 0.000002 -0.000000 -0.000002 0.000003 -0.000003 29.323296 2.287118 3.264097 7.313956 -3.963601 4.030008 7.330493 -3.689532 4.239616 -5.860497 4.454571 -3.213669 -5.860558 4.454595 -3.213685 -0.000001 0.000003 -0.000003 -5.860504 4.454570 -3.213662 -5.860508 4.454595 -3.213675 0.000001 0.000000 -0.000001 -0.000001 0.000003 -0.000001 6.524011 -11.782436 -4.985504 -74.958956 -2.119565 -27.081680 33.750017 -26.718243 26.130477 -8.336316 -4.172877 10.994578 40.109961 -15.297047 -0.359991 5.639618 28.097558 11.338828 -0.000000 0.000000 -0.000001 6.881617 2.840484 -61.140486 8.247825 7.639982 -89.898328 -0.000000 0.000000 0.000001 -2.346186 4.689424 -62.655087 8.754224 9.897011 -87.051335 0.000000 -0.000000 -0.000000 -9.042892 10.045748 -60.766137 8.524230 9.508753 -66.893794 -0.000001 0.000001 -0.000000 -17.947266 14.755114 -51.486096 8.868863 8.666883 -84.812419 0.000001 -0.000003 0.000001 0.000000 -0.000000 -0.000005 0.000000 -0.000000 -0.000005 0.000000 0.000000 -0.000005 0.000004 -0.000001 0.000002 0.000005 0.000000 0.000000 0.000004 -0.000001 0.000002 0.000004 -0.000000 0.000001 5.029695 17.950895 27.519247 -19.275531 2.291024 18.766809 -33.407886 25.826526 16.761091 -0.915645 -7.658545 -8.813218 8.891986 -2.093843 -8.100785 -1.043141 -28.210551 2.026303 0.000000 0.000001 -0.000000 1.443270 -2.341381 5.886933 -1.551911 -1.559613 14.202085 0.000001 -0.000003 -0.000002 -1.197419 -5.648436 9.996416 0.638684 -4.784956 26.020034 0.000002 0.000001 0.000000 -1.690707 -9.452611 9.194125 3.282147 -4.006725 31.145482 -0.000001 0.000001 0.000001 -3.277803 -13.400841 19.047193 8.211020 -2.833784 29.510720 -0.000002 0.000003 0.000001 -0.000002 0.000001 0.000001 0.000000 0.000001 0.000003 -0.000002 0.000000 0.000002 0.000002 0.000001 -0.000000 0.000002 0.000002 -0.000000 0.000002 0.000001 -0.000000 0.000002 0.000002 -0.000001 -0.000000 0.000000 -0.000001 -0.000000 0.000000 -0.000001 -0.000000 0.000000 -0.000001 -0.000000 0.000000 -0.000001 -0.000000 0.000000 -0.000001 -0.000000 0.000000 -0.000001 -0.000000 0.000000 -0.000001 -0.000001 0.000000 0.000002 -0.000000 0.000000 -0.000001 
